<svg width="1200" height="720" viewBox="0 0 1200 720" fill="none" xmlns="http://www.w3.org/2000/svg">
  <rect width="1200" height="720" fill="#0F1217"/>
  <rect x="40" y="40" width="1120" height="640" rx="20" fill="#171B22" stroke="#2B3442"/>
  <rect x="80" y="100" width="300" height="540" rx="14" fill="#10151D" stroke="#2B3442"/>
  <rect x="410" y="100" width="710" height="540" rx="14" fill="#10151D" stroke="#2B3442"/>
  <circle cx="112" cy="136" r="7" fill="#16B67B"/>
  <circle cx="112" cy="190" r="7" fill="#16B67B"/>
  <circle cx="112" cy="244" r="7" fill="#16B67B"/>
  <rect x="132" y="126" width="220" height="20" rx="6" fill="#1C2430"/>
  <rect x="132" y="180" width="220" height="20" rx="6" fill="#1C2430"/>
  <rect x="132" y="234" width="220" height="20" rx="6" fill="#1C2430"/>
  <rect x="442" y="130" width="300" height="16" rx="8" fill="#FA7A33"/>
  <rect x="442" y="170" width="490" height="14" rx="7" fill="#1E2734"/>
  <rect x="442" y="200" width="420" height="14" rx="7" fill="#1E2734"/>
  <rect x="442" y="248" width="620" height="140" rx="10" fill="#1C2430"/>
  <rect x="442" y="410" width="620" height="210" rx="10" fill="#1C2430"/>
  <text x="80" y="78" fill="#B5C0CF" font-family="Arial, sans-serif" font-size="24" font-weight="700">
    Replace with your Live Activity / Agent Stream visual
  </text>
</svg>
