<svg width="256" height="256" viewBox="0 0 256 256" fill="none" xmlns="http://www.w3.org/2000/svg">
  <defs>
    <linearGradient id="cRing" x1="58" y1="58" x2="198" y2="198" gradientUnits="userSpaceOnUse">
      <stop stop-color="#C7D3ED"/>
      <stop offset="0.6" stop-color="#7C8CB4"/>
      <stop offset="1" stop-color="#60709A"/>
    </linearGradient>
    <linearGradient id="cSync" x1="85" y1="80" x2="170" y2="168" gradientUnits="userSpaceOnUse">
      <stop stop-color="#8A7CFF"/>
      <stop offset="1" stop-color="#5CD8FF"/>
    </linearGradient>
  </defs>

  <circle cx="128" cy="128" r="74" stroke="url(#cRing)" stroke-width="24"/>

  <path d="M92 73L120 98" stroke="#06080F" stroke-width="18" stroke-linecap="round"/>
  <path d="M164 73L136 98" stroke="#06080F" stroke-width="18" stroke-linecap="round"/>
  <path d="M92 183L120 158" stroke="#06080F" stroke-width="18" stroke-linecap="round"/>
  <path d="M164 183L136 158" stroke="#06080F" stroke-width="18" stroke-linecap="round"/>

  <path d="M96 122C103 106 119 95 137 95C154 95 170 105 177 121" stroke="url(#cSync)" stroke-width="10" stroke-linecap="round"/>
  <path d="M164 120L179 122L171 108" stroke="url(#cSync)" stroke-width="6" stroke-linecap="round" stroke-linejoin="round"/>
  <path d="M160 134C153 150 137 161 119 161C102 161 86 151 79 135" stroke="url(#cSync)" stroke-width="10" stroke-linecap="round"/>
  <path d="M92 136L77 134L85 148" stroke="url(#cSync)" stroke-width="6" stroke-linecap="round" stroke-linejoin="round"/>
</svg>
